# xmcd CD database file
#
# Track frame offsets:
#	182
#	31610
#	63025
#	86047
#	106007
#	143907
#	151222
#	180545
#	203610
#
# Disc length: 2966 seconds
#
# Revision: 0
# Processed by: cddbd v1.5.2PL0 Copyright (c) Steve Scherf et al.
# Submitted via: CDex 1.70beta2
#
DISCID=620b9409
DTITLE=Byron Febbs - Blue With Envy
DYEAR=1994
DGENRE=Jazz
TTITLE0=Blue With Envy
TTITLE1=Mr. Yesterdays
TTITLE2=Baile Del Alma (Dance of the Soul)
TTITLE3=Hustle and Bustle Waltz
TTITLE4=Mind Body and Soul
TTITLE5=Amazonas
TTITLE6=Look Both Ways
TTITLE7=Blues For Byron
TTITLE8=Forbidden Fruit
EXTD=YEAR: 1994
EXTT0=
EXTT1=
EXTT2=
EXTT3=
EXTT4=
EXTT5=
EXTT6=
EXTT7=
EXTT8=
PLAYORDER=
